<?xml version="1.0" standalone="no"?>
<!DOCTYPE svg PUBLIC "-//W3C//DTD SVG 20010904//EN"
 "http://www.w3.org/TR/2001/REC-SVG-20010904/DTD/svg10.dtd">
<svg version="1.0" xmlns="http://www.w3.org/2000/svg"
 width="768.000000pt" height="468.000000pt" viewBox="0 0 768.000000 468.000000"
 preserveAspectRatio="xMidYMid meet">

<g transform="translate(0.000000,468.000000) scale(0.100000,-0.100000)"
fill="#000000" stroke="none">
<path d="M2885 3848 c-134 -83 -289 -237 -365 -363 -103 -169 -152 -299 -192
-510 -22 -114 -23 -142 -23 -575 1 -429 2 -462 23 -572 57 -301 169 -527 352
-708 186 -186 405 -295 700 -351 120 -23 143 -24 585 -24 490 0 527 3 725 56
181 48 352 139 494 260 55 48 177 179 184 197 1 4 -49 -18 -112 -49 -160 -79
-353 -138 -576 -176 -149 -26 -589 -26 -740 0 -205 35 -440 107 -583 178 l-57
30 -103 -35 c-56 -19 -131 -40 -167 -45 -82 -14 -237 -14 -245 -1 -3 5 12 33
34 62 76 101 96 153 96 248 l0 85 -51 75 c-129 189 -225 441 -271 710 -25 149
-25 541 0 690 46 268 134 504 260 695 40 60 123 164 142 177 7 5 7 8 0 8 -6 0
-56 -28 -110 -62z"/>
<path d="M3020 2865 l0 -65 225 0 225 0 -207 -257 c-114 -142 -216 -267 -226
-278 -25 -27 -37 -59 -37 -101 l0 -34 314 0 c356 0 346 -2 346 76 l0 44 -230
0 c-180 0 -230 3 -230 13 0 7 97 134 216 282 215 269 244 312 244 360 l0 25
-320 0 -320 0 0 -65z"/>
<path d="M4450 2547 c0 -437 -4 -417 83 -417 40 0 47 3 52 23 3 12 4 191 3
397 l-3 375 -67 3 -68 3 0 -384z"/>
<path d="M4885 2735 c-196 -79 -262 -330 -129 -492 123 -150 349 -156 478 -12
61 66 81 121 80 214 0 99 -23 155 -91 223 -88 88 -222 114 -338 67z m198 -121
c71 -36 107 -94 107 -174 0 -98 -69 -177 -165 -188 -142 -16 -255 130 -201
259 17 39 70 94 106 108 39 15 118 13 153 -5z"/>
<path d="M3896 2730 c-63 -25 -129 -90 -163 -159 -35 -71 -37 -182 -6 -253 44
-97 133 -167 239 -187 59 -11 166 7 208 35 25 16 27 16 47 -10 17 -21 29 -26
65 -26 l44 0 0 305 0 305 -60 0 c-53 0 -60 -2 -60 -20 0 -25 0 -25 -52 2 -60
32 -194 36 -262 8z m233 -138 c54 -44 74 -85 74 -152 0 -142 -141 -232 -268
-170 -69 34 -100 86 -100 170 0 82 31 135 97 169 61 32 146 24 197 -17z"/>
</g>
</svg>
